<svg xmlns="http://www.w3.org/2000/svg" xmlns:xlink="http://www.w3.org/1999/xlink" id="b" data-name="Layer 2" width="284.22" height="176.19" viewBox="0 0 284.22 176.19"><defs><clipPath id="d"><path d="m50.2,28.19s-1.28,21.49,20.44,23.05c21.72,1.55,49.02-18.07,69.23-16.62,5.56.4,12.12,4.42,12.12,4.42,0,0-6.74-19.27-28.46-20.83-21.72-1.56-47.93,13.65-59.38,13.35-11.39-.29-13.95-3.38-13.95-3.38Z" fill="#4da32f" stroke-width="0"></path></clipPath></defs><g id="c" data-name="Layer 1"><g><g><path d="m18.06,174.39c-3.56,0-7.07-1.19-9.88-3.36-3.97-3.05-6.34-7.86-6.35-12.87l-.03-73.97c0-7.36,4.96-13.81,12.07-15.7l18.29-4.85c1.28-.34,2.62-.52,4-.53,2.41-.02,4.61-1.39,5.68-3.55,1.08-2.16.85-4.74-.58-6.68-5.37-7.29-8.1-16.72-7.47-25.87.4-5.79,3.88-10.96,9.1-13.5,2.2-1.07,4.65-1.63,7.09-1.63,2.92,0,5.78.79,8.28,2.27.75.44,1.57.73,2.43.84.69.09,1.69.19,3.03.25.09,0,.17,0,.26,0,.35,0,.69-.03,1.03-.08,2.68-.44,7.58-2.08,13.7-4.19,11.93-4.1,26.77-9.2,41.55-9.2,1.48,0,2.95.05,4.38.15,23.65,1.69,35.47,17.91,39.45,24.81.9,1.57,2.43,2.68,4.2,3.06.45.1.91.15,1.36.15,1.32,0,2.63-.41,3.72-1.19,6.37-4.53,13.27-7.56,20.52-8.99,1.89-.37,4.43-.85,7.28-1.21.72-.09,1.42-.3,2.06-.63.99-.49,2.03-.89,3.11-1.17l18.44-4.87c1.31-.35,2.66-.53,4.02-.54,1.12,0,2.21-.31,3.18-.87,1.24-.72,2.58-1.28,3.97-1.66l18.2-4.9c1.37-.37,2.79-.56,4.22-.56,3.55,0,7.06,1.19,9.87,3.35,3.98,3.05,6.36,7.87,6.36,12.88v4.66c0,6.04.03,58.73,0,67.24,0,3.08-.44,7.93-1.24,14.03-.28,2.11.51,4.22,2.1,5.64,4.41,3.92,6.94,9.51,6.94,15.34,0,11.34-9.23,20.56-20.57,20.56-.59,0-1.16-.04-1.74-.09-.18-.02-.36-.02-.54-.02-.84,0-1.66.16-2.44.48-1.08.44-2.01.77-2.94,1.01-.29.08-.59.15-.9.21-.05,0-.65.13-1.27.23-.94.14-1.92.21-2.82.21-10.55,0-17.35-6.63-20.2-19.69-.25-1.13-.51-2.41-.77-3.79-.34-1.75-1.38-3.27-2.89-4.22-1.03-.65-2.22-.98-3.41-.98-.55,0-1.1.07-1.64.21l-5.62,1.49c-.65.17-1.32.3-1.98.39-.67.09-1.33.29-1.94.58-1.09.53-2.23,1-3.38,1.42-2.05.74-3.81,1.29-5.58,1.73-4.82,1.2-9.43,1.8-13.72,1.8-4.55,0-8.87-.67-12.85-1.99-.66-.22-1.35-.33-2.03-.33-1.78,0-3.51.74-4.75,2.1-5.87,6.45-13.52,10.95-22.72,13.38-3.49.92-6.94,1.39-10.27,1.39-4.13,0-8.1-.71-11.8-2.12-.74-.28-1.51-.42-2.28-.42-1.74,0-3.44.71-4.67,2.02-5.79,6.14-13.26,10.45-22.2,12.81-3.48.92-6.93,1.39-10.26,1.39-.98,0-1.95-.04-2.91-.12-.18-.02-.36-.02-.54-.02-1.55,0-3.05.56-4.22,1.58-1.89,1.65-4.08,2.81-6.51,3.45l-18.14,4.8c-1.35.36-2.75.54-4.15.54-.03,0-.06,0-.09,0-1.13,0-2.38.29-3.36.85-1.22.7-2.53,1.24-3.9,1.61l-18.2,4.85c-1.36.36-2.77.55-4.18.55Z" fill="#13100d" stroke-width="0"></path><path d="m18.06,176.19c-3.95,0-7.85-1.32-10.98-3.73C2.67,169.07.04,163.73.03,158.17L0,84.2c0-8.17,5.51-15.34,13.41-17.44l18.29-4.85c1.42-.38,2.91-.58,4.44-.59,1.74-.02,3.31-1,4.09-2.56.78-1.56.62-3.4-.41-4.81-5.62-7.63-8.47-17.5-7.82-27.06.44-6.43,4.31-12.17,10.11-14.99,5.35-2.6,11.97-2.33,17.08.71.53.32,1.14.53,1.75.61.83.11,1.79.19,2.87.23h.18c.25,0,.5-.02.74-.06,2.54-.41,7.57-2.11,13.4-4.11C90.2,5.15,105.19,0,120.27,0c1.52,0,3.03.05,4.5.16,24.51,1.75,36.76,18.56,40.88,25.7.65,1.13,1.75,1.93,3.02,2.21,1.25.27,2.6,0,3.66-.75,6.58-4.68,13.71-7.81,21.21-9.29,1.92-.38,4.5-.87,7.4-1.23.52-.07,1.02-.22,1.48-.45,1.09-.55,2.25-.98,3.45-1.3l18.44-4.87c1.46-.39,2.96-.59,4.46-.6.8,0,1.6-.22,2.29-.63,1.38-.81,2.87-1.42,4.41-1.84l18.2-4.9c5.32-1.44,11.26-.26,15.65,3.1,4.42,3.39,7.06,8.74,7.06,14.31v4.66c0,5.81.03,58.66,0,67.24,0,3.15-.44,8.09-1.26,14.26-.2,1.52.36,3.04,1.51,4.06,4.79,4.26,7.54,10.34,7.54,16.69,0,12.33-10.03,22.36-22.36,22.36-.64,0-1.26-.05-1.89-.1-.76-.07-1.47.05-2.15.33-1.14.47-2.14.82-3.16,1.09-.32.09-.65.16-.99.23-.05.01-.71.14-1.37.24-1.04.15-2.1.23-3.08.23-14.34,0-19.85-11.48-21.95-21.11-.25-1.14-.51-2.43-.78-3.83-.24-1.25-1-2.36-2.08-3.04-1.07-.68-2.43-.87-3.64-.55l-5.62,1.49c-.72.19-1.46.34-2.2.44-.48.07-.96.21-1.4.42-1.14.55-2.33,1.05-3.55,1.49-2.09.76-3.92,1.33-5.75,1.78-10.25,2.55-19.51,2.45-27.57-.23-1.71-.57-3.67-.05-4.88,1.27-6.11,6.71-14.05,11.38-23.59,13.91-8.18,2.17-16.12,1.89-23.16-.78-1.73-.65-3.75-.18-5,1.15-6.02,6.39-13.78,10.87-23.05,13.32-4.69,1.24-9.32,1.69-13.78,1.32-.14-.01-.26-.02-.39-.02-1.12,0-2.2.4-3.04,1.14-2.1,1.83-4.53,3.12-7.23,3.84l-18.14,4.8c-1.51.4-3.06.6-4.61.6h0c-.94,0-1.88.24-2.54.61-1.36.78-2.81,1.38-4.34,1.78l-18.2,4.85c-1.52.4-3.08.61-4.64.61ZM49.98,13.7c-2.17,0-4.35.5-6.31,1.45-4.64,2.25-7.74,6.85-8.09,12-.6,8.73,2,17.72,7.13,24.68,1.84,2.5,2.12,5.77.74,8.55-1.38,2.77-4.17,4.52-7.27,4.55-1.23.01-2.42.17-3.55.47l-18.29,4.85c-6.33,1.68-10.74,7.41-10.74,13.96l.03,73.97c0,4.45,2.11,8.73,5.64,11.44,3.5,2.69,8.23,3.64,12.51,2.5l18.2-4.85c1.22-.32,2.39-.81,3.47-1.43,1.21-.69,2.76-1.09,4.25-1.09h.16c1.17,0,2.41-.16,3.62-.48l18.14-4.8c2.16-.57,4.11-1.61,5.79-3.07,1.67-1.46,3.85-2.19,6.1-2,4,.33,8.25-.08,12.55-1.22,8.61-2.28,15.8-6.42,21.35-12.31,2.23-2.36,5.83-3.2,8.89-2.05,6.35,2.41,13.52,2.64,20.97.67,8.86-2.34,16.22-6.67,21.85-12.85,2.15-2.36,5.64-3.27,8.67-2.26,7.41,2.46,15.99,2.53,25.56.15,1.71-.43,3.42-.96,5.4-1.67,1.1-.4,2.18-.85,3.21-1.35.79-.38,1.62-.63,2.48-.75.6-.08,1.19-.2,1.77-.35l5.62-1.49c2.17-.58,4.57-.22,6.48.99,1.92,1.2,3.27,3.17,3.7,5.4.26,1.37.52,2.63.76,3.75,2.68,12.3,8.71,18.28,18.44,18.28.8,0,1.71-.07,2.56-.19.55-.08,1.11-.2,1.16-.21.27-.06.54-.12.8-.19.86-.23,1.73-.53,2.72-.94,1.22-.5,2.53-.7,3.83-.59.52.05,1.05.09,1.58.09,10.35,0,18.77-8.42,18.77-18.76,0-5.32-2.31-10.42-6.34-14-2.04-1.82-3.04-4.52-2.69-7.22.79-6.03,1.22-10.8,1.23-13.8.02-8.58,0-61.42,0-67.23v-4.66c0-4.46-2.11-8.74-5.65-11.45-3.51-2.69-8.27-3.63-12.53-2.48l-18.2,4.9c-1.24.33-2.43.83-3.53,1.47-1.23.72-2.64,1.11-4.07,1.12-1.2,0-2.4.17-3.57.48l-18.44,4.87c-.96.25-1.89.6-2.76,1.04-.83.42-1.72.69-2.64.8-2.79.35-5.29.82-7.15,1.19-7,1.39-13.67,4.31-19.83,8.69-1.88,1.34-4.29,1.82-6.51,1.33-2.26-.49-4.21-1.92-5.37-3.92-3.84-6.65-15.23-22.28-38.02-23.92-1.39-.1-2.81-.15-4.25-.15-14.48,0-29.16,5.05-40.96,9.1-6.21,2.14-11.18,3.81-14.01,4.27-.55.09-1.1.13-1.65.1-1.18-.05-2.26-.14-3.19-.26-1.1-.15-2.15-.51-3.11-1.08-2.23-1.32-4.77-2.02-7.37-2.02Z" fill="#fff" stroke-width="0"></path></g><g><path d="m18.32,84.2l18.25-4.84-.04,27.57,11.36-3,.05-27.67,18.16-4.81v16.87c1.8-4.61,4.2-8.8,7.2-12.51,4.9-6.06,10.41-9.92,16.37-11.5,1.57-.42,3.18-.63,4.79-.63,2.17,0,4.4.39,6.61,1.15,3.8,1.31,7.11,3.69,9.86,7.08,2,2.46,3.52,5.13,4.56,7.95,1.83-6.71,4.82-12.66,8.91-17.72,4.91-6.06,10.41-9.93,16.37-11.5,1.57-.42,3.18-.63,4.78-.63,2.17,0,4.4.39,6.61,1.15,3.8,1.31,7.11,3.69,9.86,7.08,1.88,2.31,3.34,4.81,4.37,7.44,1.35-4.93,3.33-8.93,5.31-12.04,5.89-9.23,15.32-15.91,25.24-17.88,3.9-.78,8.19-1.49,13.11-1.49h.29v-1.75s18.39-4.86,18.39-4.86v27.63s11.29-3.04,11.29-3.04l-.07-27.67,18.16-4.89v4.09c0,.59.03,59.35,0,67.71-.01,4.66-1.41,14.79-2.71,22.71-2.92,17.81-3.67,18.02-5.66,18.55,0,0-.19.04-.38.07-.22.03-.41.03-.41.03-2.83,0-3.42-2.75-4.33-6.92-.59-2.71-1.3-6.5-2-10.66-1.27-7.58-2.57-16.87-2.61-20.56-.07-5.07-.06-20.98-.05-28.41l-11.27,3.01v32.27s-18.33,4.86-18.33,4.86v-4.26c-1.72,2.95-4.42,5.56-8.62,7.07-1.52.55-2.79.95-3.99,1.25-3.53.88-6.82,1.32-9.78,1.32-10.69,0-17.95-5.8-21.07-16.78-.01.06-.03.12-.05.18-2.35,9.25-5.88,16.56-10.48,21.73-3.66,4.05-8.63,6.93-14.79,8.56-2.13.56-4.18.85-6.1.85-2.44,0-4.72-.46-6.78-1.36-3.6-1.59-6.67-4.24-9.11-7.88-1.69-2.5-3.02-5.1-3.96-7.74-2.35,9.02-5.84,16.17-10.35,21.24-3.66,4.05-8.63,6.93-14.79,8.56-2.13.56-4.18.85-6.1.85h0c-2.44,0-4.72-.46-6.78-1.36-3.6-1.59-6.67-4.24-9.11-7.88-.91-1.34-1.71-2.71-2.4-4.1v18.77s-18.09,4.8-18.09,4.8l-.05-32.28-11.46,3.06v32.23s-18.15,4.85-18.15,4.85l-.03-73.9Zm72.86-4.97c-1.01-.03-2.41.79-3.21,1.62-.77.8-1.56,2.03-2.31,3.72-.82,1.85-1.5,4.41-2.03,7.59-.57,3.29-.8,7.75-.7,13.28.1,5.47.57,9.95,1.39,13.32.58,2.38,1.42,4.08,2.43,4.91.75.62,1.31.69,1.67.69.22,0,.46-.03.7-.1,1.63-.43,2.78-1.35,3.62-2.92,2.25-4.15,3.57-9.87,3.95-17,.39-7.29-.05-13.64-1.32-18.87-.89-3.67-1.99-4.95-2.51-5.45-.6-.57-.86-.76-1.67-.78Zm51.12-13.7c-1.09,0-2.05.45-3.23,1.65-.78.79-1.56,2.03-2.31,3.72-.82,1.85-1.5,4.41-2.03,7.59-.57,3.29-.8,7.75-.7,13.28.1,5.47.57,9.95,1.39,13.32.58,2.38,1.42,4.08,2.43,4.91.75.62,1.31.69,1.67.69.22,0,.46-.03.7-.1,1.63-.43,2.78-1.35,3.62-2.92,2.24-4.15,3.57-9.87,3.95-17,.39-7.29-.05-13.64-1.32-18.87-.89-3.67-1.87-4.99-2.41-5.48-.66-.61-1.13-.78-1.76-.78Zm57.18-15.95c-.65,0-1.32.09-2,.27-2.06.54-4.2,1.92-6.37,4.08-5.63,5.64-6.25,14.31-6.38,22-.17,10.07,3.49,18.24,8.34,18.59.46.04.9.05,1.34.05h0c1.39,0,2.75-.18,4.05-.52,2.7-.71,6.45-2.56,9.04-7.39l2.87-5.34v-32.24s-1.61,6.53-1.61,6.53l-3.76-3.63c-.93-.9-2.89-2.41-5.52-2.41Z" fill="#dc052b" stroke-width="0"></path><path d="m108.59,73.8c-2.39-2.95-5.23-5-8.51-6.13-3.29-1.14-6.49-1.3-9.64-.46-5.35,1.42-10.3,4.92-14.81,10.49-4.51,5.58-7.56,12.22-9.14,19.93-1.59,7.71-1.56,14.94.08,21.68.81,3.34,2.28,6.6,4.43,9.79,2.14,3.18,4.76,5.45,7.83,6.8,3.07,1.35,6.71,1.47,10.9.36,5.62-1.49,10.06-4.04,13.32-7.65,4.29-4.83,7.57-11.65,9.81-20.47,2.23-8.82,2.42-17.07.56-24.76-.83-3.43-2.43-6.63-4.83-9.59Zm-8.9,30.69c-.4,7.63-1.85,13.72-4.31,18.27-1.23,2.28-3.07,3.75-5.49,4.39-1.82.48-3.51.09-5.05-1.17-1.54-1.27-2.69-3.44-3.43-6.52-.88-3.61-1.37-8.27-1.47-13.97-.11-5.72.13-10.33.74-13.83.58-3.51,1.35-6.27,2.25-8.32.91-2.03,1.88-3.57,2.93-4.62,1.04-1.04,2.4-1.86,4.16-2.25s3.25-.03,4.77,1.22c1.5,1.25,2.68,3.6,3.51,7.06,1.34,5.52,1.81,12.11,1.4,19.74Zm110.45-16.4c.34,4.54,0,14.93-9.4,18.32-1.21.44-2.45.85-3.71,1.16-13.49,3.36-23.92.3-27.56-14.6-7.8-31.98,11.48-50.62,28.05-54.26,5.26-1.16,8.05-1.44,12.62-1.43l-3.06,12.55c-1.58-1.52-5.25-4.24-10.38-2.88-2.57.68-5.16,2.31-7.72,4.86-6.43,6.44-7.12,15.81-7.26,24.08-.2,12.05,4.47,21.15,11.12,21.64,2.2.17,4.35-.02,6.38-.56,3.38-.89,7.85-3.17,10.91-8.87Zm-147.04-12.74v67.79s-12.18,3.2-12.18,3.2l-.03-32.24-17.41,4.62v32.23s-12.12,3.26-12.12,3.26l-.03-67.69,12.18-3.24v27.56s17.38-4.6,17.38-4.6l.02-27.65,12.2-3.23Zm96.59-15.22c-2.39-2.95-5.23-5-8.51-6.13-3.29-1.14-6.49-1.3-9.64-.46-5.35,1.42-10.3,4.92-14.81,10.49-4.51,5.58-7.56,12.22-9.14,19.93-1.59,7.71-1.56,14.94.08,21.68.81,3.34,2.28,6.6,4.43,9.79,2.14,3.18,4.76,5.45,7.83,6.8,3.07,1.35,6.71,1.47,10.9.36,5.62-1.49,10.06-4.04,13.32-7.65,4.29-4.83,7.57-11.65,9.81-20.47,2.23-8.82,2.42-17.07.56-24.76-.83-3.43-2.43-6.63-4.83-9.59Zm-8.9,30.69c-.4,7.63-1.85,13.72-4.31,18.27-1.23,2.28-3.07,3.75-5.49,4.39-1.82.48-3.51.09-5.05-1.17-1.54-1.27-2.69-3.44-3.43-6.52-.88-3.61-1.37-8.27-1.47-13.97-.11-5.72.13-10.33.74-13.83.58-3.51,1.35-6.27,2.25-8.32.91-2.03,1.88-3.57,2.93-4.62,1.04-1.04,2.4-1.88,4.16-2.25,1.58-.33,3.25-.03,4.77,1.22,1.5,1.25,2.68,3.6,3.51,7.06,1.34,5.52,1.81,12.11,1.4,19.74Zm104.34.65c-.02,8.43-5.04,38.07-6.14,38.37-1.11.3-5.87-28.44-5.96-35.17-.09-6.72-.05-32.28-.05-32.28l-17.29,4.6v32.27s-12.31,3.26-12.31,3.26l-.02-67.69,12.33-3.26v27.63s17.35-4.64,17.35-4.64l-.07-27.67,12.16-3.22s.03,59.36,0,67.81Z" fill="#ffdc00" stroke-width="0"></path><g><path d="m50.2,28.19s-1.28,21.49,20.44,23.05c21.72,1.55,49.02-18.07,69.23-16.62,5.56.4,12.12,4.42,12.12,4.42,0,0-6.74-19.27-28.46-20.83-21.72-1.56-47.93,13.65-59.38,13.35-11.39-.29-13.95-3.38-13.95-3.38Z" fill="#4da32f"></path><g clip-path="url(#d)"><path d="m152,39.04c-.35-.5-.58-.8-.82-1.11-3.72-4.71-11.21-10.07-23.84-10.98-22.23-1.59-45.27,15.29-57.9,14.39-14.07-1.01-18.38-10.84-19.19-13.1-.03-.03-.06-.05-.06-.05,0,0-1.48,21.68,20.25,23.24,21.72,1.55,49.9-18.12,69.42-16.81,4.96.33,10.84,3.67,12.13,4.43Z" fill="#007e48" stroke-width="0"></path></g></g><g><g><path d="m98.74,81.77c.3.83.58,1.74.81,2.74,1.36,5.6,1.86,12.33,1.44,20-.4,7.74-1.9,14.03-4.43,18.69-1.38,2.55-3.46,4.21-6.18,4.94-.56.15-1.12.23-1.67.24-.29,0-.58-.04-.87-.07,1.35.86,2.8,1.08,4.34.67,2.41-.64,4.24-2.09,5.48-4.37,2.47-4.55,3.91-10.62,4.3-18.24.41-7.61-.07-14.18-1.4-19.69-.49-2.03-1.09-3.66-1.81-4.92Z" fill="#fff" stroke-width="0"></path><path d="m101.19,69.27c-.42-.19-.84-.36-1.27-.5-1.84-.64-3.67-.95-5.44-.93-1.19.01-2.37.17-3.55.49-5.09,1.34-9.86,4.74-14.19,10.09-4.36,5.41-7.36,11.94-8.89,19.4-1.54,7.5-1.52,14.62.07,21.16.47,1.96,1.23,3.92,2.19,5.83-.48-1.21-.9-2.43-1.2-3.67-1.63-6.74-1.65-13.94-.08-21.63,1.58-7.69,4.6-14.42,9.09-19.98,4.51-5.56,9.46-8.95,14.81-10.37,2.77-.73,5.57-.69,8.46.1Z" fill="#fff" stroke-width="0"></path></g><polygon points="32.61 84.74 32.61 84.74 32.62 84.74 32.61 84.74" fill="#fff" stroke-width="0"></polygon><polygon points="35.64 111.42 35.65 111.42 35.64 111.42 35.64 111.42" fill="#fff" stroke-width="0"></polygon><polygon points="227.49 59.64 227.5 59.64 227.49 59.64 227.49 59.64" fill="#fff" stroke-width="0"></polygon><polygon points="22.54 152.71 23.75 88.25 32.61 84.74 22.51 87.41 22.54 152.71" fill="#fff" stroke-width="0"></polygon><polygon points="52.05 79.59 52 107.09 35.65 111.42 53.24 107.93 53.28 80.43 62.03 76.94 62.02 76.94 52.05 79.59" fill="#fff" stroke-width="0"></polygon><polygon points="52.13 144.87 53.32 113.29 52.08 113.62 52.13 144.87" fill="#fff" stroke-width="0"></polygon><path d="m149.84,68.09c.3.83.58,1.74.81,2.74,1.36,5.6,1.86,12.33,1.44,20-.4,7.74-1.9,14.03-4.43,18.69-1.38,2.55-3.46,4.21-6.18,4.94-.56.15-1.12.23-1.67.24-.29,0-.58-.04-.87-.07,1.35.86,2.8,1.08,4.34.67,2.41-.64,4.24-2.09,5.48-4.37,2.47-4.55,3.91-10.62,4.3-18.24.41-7.61-.07-14.18-1.4-19.69-.49-2.03-1.09-3.66-1.81-4.92Z" fill="#fff" stroke-width="0"></path><path d="m152.29,55.6c-.42-.19-.84-.36-1.27-.5-1.84-.64-3.67-.95-5.44-.93-1.19.01-2.37.17-3.55.49-5.09,1.34-9.86,4.74-14.19,10.09-4.36,5.41-7.36,11.94-8.89,19.4-1.54,7.5-1.52,14.62.07,21.16.47,1.96,1.23,3.92,2.19,5.83-.48-1.21-.9-2.43-1.2-3.67-1.63-6.74-1.65-13.94-.08-21.63,1.58-7.69,4.62-14.32,9.11-19.88,4.51-5.56,9.44-9.05,14.79-10.47,2.77-.73,5.57-.69,8.46.1Z" fill="#fff" stroke-width="0"></path><path d="m198.96,98.37c-1.56.41-3.05.53-4.7.55-.55,0-1.54-.13-2.1-.18.68.25,1.52.55,2.23.62.54.05,3.66.47,6.38-.34,2.18-.65,4.95-1.58,7.38-3.93.16-.95.26-1.87.31-2.74-3.05,3.89-6.69,5.27-9.51,6.02Z" fill="#fff" stroke-width="0"></path><path d="m208.58,38.7c-3.84.1-7.5.6-10.87,1.5-7.96,2.09-15.07,6.3-20.45,13.34-8.76,11.47-10.48,30.89-4.44,45.09.38.9,1.29,2.29,1.22,2.14-5.42-11.82-3.94-36.79,4.58-46.64,5.96-6.88,12.85-11.26,21.03-13.42,2.8-.74,5.94-1.44,8.93-2.01Z" fill="#fff" stroke-width="0"></path><polygon points="243.81 27.75 243.81 55.33 227.04 59.81 245.1 56.23 245.14 28.72 253.89 25.07 243.81 27.75" fill="#fff" stroke-width="0"></polygon><path d="m245.17,61.67l-1.3.35c0,6.22-.02,26.94.05,32.44.08,5.76,3.16,24.69,4.83,31.79-1.75-8.87-3.48-25.49-3.54-30.02-.08-6.7-.04-34.56-.04-34.56Z" fill="#fff" stroke-width="0"></path><polygon points="214.35 100.95 215.6 36.54 224.42 32.97 214.32 35.64 214.35 100.95" fill="#fff" stroke-width="0"></polygon></g><g><path d="m261.57,122.17c-2.38,0-4.32,1.95-4.32,4.32s1.95,4.32,4.32,4.32,4.32-1.95,4.32-4.32-1.95-4.32-4.32-4.32Zm0,7.9c-1.96,0-3.57-1.61-3.57-3.57s1.61-3.57,3.57-3.57,3.57,1.61,3.57,3.57-1.61,3.57-3.57,3.57Z" fill="#dd052b" stroke-width="0"></path><path d="m262.73,128.72l-1.17-1.71h-.92v1.71h-.93v-4.58h2.32c1.04,0,1.72.59,1.72,1.44s-.62,1.26-1.25,1.35l1.29,1.8h-1.07Zm.08-3.15c0-.44-.38-.73-.9-.73h-1.26v1.46h1.26c.52,0,.9-.29.9-.73Z" fill="#dd052b" stroke-width="0"></path></g></g></g></g></svg>