<?xml version="1.0" encoding="UTF-8" standalone="no"?>
<svg
   width="550.87201"
   height="315.56601"
   viewBox="0 0 550.87203 315.566"
   version="1.1"
   id="svg4"
   sodipodi:docname="evian-logo.svg"
   inkscape:version="1.4.2 (f4327f4, 2025-05-13)"
   xmlns:inkscape="http://www.inkscape.org/namespaces/inkscape"
   xmlns:sodipodi="http://sodipodi.sourceforge.net/DTD/sodipodi-0.dtd"
   xmlns="http://www.w3.org/2000/svg"
   xmlns:svg="http://www.w3.org/2000/svg">
  <sodipodi:namedview
     id="namedview4"
     pagecolor="#ffffff"
     bordercolor="#000000"
     borderopacity="0.25"
     inkscape:showpageshadow="2"
     inkscape:pageopacity="0.0"
     inkscape:pagecheckerboard="0"
     inkscape:deskcolor="#d1d1d1"
     inkscape:zoom="1.1183966"
     inkscape:cx="287.91218"
     inkscape:cy="147.08557"
     inkscape:window-width="1366"
     inkscape:window-height="705"
     inkscape:window-x="-8"
     inkscape:window-y="-8"
     inkscape:window-maximized="1"
     inkscape:current-layer="svg4" />
  <defs
     id="defs4">
    <linearGradient
       id="linear-gradient"
       x1="-410.67282"
       y1="-2641.5884"
       x2="-411.43958"
       y2="-2513.355"
       gradientUnits="userSpaceOnUse"
       gradientTransform="matrix(1.7236588,0,0,0.58016124,-147.71,-147.71)">
      <stop
         offset="0"
         stop-color="#f7aabc"
         id="stop1" />
      <stop
         offset="0.845"
         stop-color="#f7aabc"
         stop-opacity="0"
         id="stop2" />
    </linearGradient>
    <linearGradient
       id="linear-gradient-2"
       x1="-426.30106"
       y1="-2095.7786"
       x2="-427.48993"
       y2="-1966.9847"
       gradientUnits="userSpaceOnUse"
       gradientTransform="matrix(1.3481036,0,0,0.74178275,-147.71,-147.71)">
      <stop
         offset="0.001"
         stop-color="#f7aabc"
         id="stop3" />
      <stop
         offset="1"
         stop-color="#f7aabc"
         stop-opacity="0"
         id="stop4" />
    </linearGradient>
  </defs>
  <path
     id="path8"
     style="fill:#ed174f;fill-opacity:1"
     d="M 264.83008 131.48438 L 264.83008 157.46094 L 288.89648 157.46094 L 288.89648 131.48438 L 264.83008 131.48438 z M 363.24219 167.8418 C 330.66819 167.8418 308.67331 187.92806 307.57031 214.41406 L 331.63477 214.41406 C 332.41777 196.72406 344.76955 186.5957 362.06055 186.5957 C 380.47455 186.5957 394.39648 196.58767 394.39648 220.01367 L 394.39648 224.39453 C 367.94948 226.76553 342.74725 229.7632 327.40625 236.2832 C 311.43525 243.0722 301.82422 254.62906 301.82422 274.66406 C 301.82422 298.92906 322.04611 315.55859 349.91211 315.55859 C 372.68711 315.55859 387.15506 306.75923 395.53906 293.24023 L 396.08789 293.24023 L 396.08789 311.71875 L 418.05469 311.71875 L 418.05469 225.34766 C 418.05369 203.70466 414.23397 191.48556 404.54297 181.97656 L 404.54297 181.97461 C 394.51597 172.13461 380.27019 167.8418 363.24219 167.8418 z M 502.15625 167.85352 C 482.57825 167.85352 466.13906 176.29183 457.16406 190.17383 L 456.61719 190.17383 L 456.61719 171.69531 L 434.64844 171.69531 L 434.64844 311.7168 L 458.71484 311.7168 L 458.71484 234.79688 C 458.71484 217.56088 462.16705 207.30273 471.87305 197.80273 A 37.4 37.4 0 0 1 497.11328 187.77734 C 506.65828 187.77734 513.27109 190.26356 518.49609 195.47656 C 525.30309 202.26856 526.80273 210.91034 526.80273 227.77734 L 526.80273 311.71875 L 550.87109 311.71875 L 550.87109 226.06641 C 550.87109 203.36141 547.93542 192.53881 538.35742 182.00781 C 530.15842 172.99081 517.39925 167.85452 502.15625 167.85352 z M 63.507812 167.85547 C 25.122813 167.85547 -4.7369516e-15 197.66612 0 239.82812 C 0 285.96213 24.345609 315.56641 66.099609 315.56641 C 101.56161 315.56641 121.65561 293.62345 126.59961 269.81445 L 101.99023 269.81445 C 98.702234 285.49645 86.125609 296.77148 66.099609 296.77148 C 42.078609 296.77148 25.945172 280.18225 23.951172 246.78125 L 127.70117 246.78125 C 128.68917 220.48425 122.93673 200.91916 110.42773 186.66016 C 99.680734 174.40716 84.348813 167.85547 63.507812 167.85547 z M 123.94727 171.69531 L 174.26758 311.70508 L 205.44727 311.70508 L 255.76758 171.69531 L 230.17773 171.69531 C 230.17773 171.69531 203.49333 251.58642 197.36133 270.35742 C 195.00833 277.55942 191.44805 288.79945 190.24805 292.68945 L 189.81836 292.68945 C 188.44936 288.32545 185.03427 277.53642 182.69727 270.35742 C 176.58327 251.57342 149.89062 171.69531 149.89062 171.69531 L 123.94727 171.69531 z M 264.83008 171.69531 L 264.83008 311.70703 L 288.89648 311.70703 L 288.89648 171.69531 L 264.83008 171.69531 z M 63.867188 186.57812 C 86.922187 186.57812 100.7255 202.89147 103.6875 228.10547 L 24.400391 228.10547 C 27.613391 201.30547 42.509187 186.57812 63.867188 186.57812 z M 394.39648 243.03906 L 394.39648 250.45703 C 394.39548 277.29003 378.34091 295.94922 352.87891 295.94922 C 334.99591 295.94922 325.89063 286.79422 325.89062 273.94922 C 325.89062 264.76822 329.48089 258.53842 337.21289 253.98242 C 346.52689 248.49542 364.33148 246.20206 394.39648 243.03906 z " />
  <path
     d="m 276.90039,0.00390625 -16.71094,9.28515625 -10.92968,17.7910155 -10.86133,-0.533203 -11.3711,14.099609 -16.78711,17.927735 -6.33007,8.740234 29.06054,-3.224609 32.31836,10.71289 11.08399,20.578125 25.11718,16.099611 h 34.08789 l 22.11524,5.83398 -28.21289,-17.740231 -0.5332,-8.351563 -11.375,-13.033203 -0.54883,-13.5625 L 297.51367,36.472656 293.16992,22.904297 276.90039,7.265625 Z m -82.70508,23.73046875 -26.7539,18.900391 -11.4668,18.201171 -12.86524,3.386719 -19.17968,15.087891 -21.46094,26.835933 -17.378906,13.08399 h 29.021486 l 27.07812,-12.30078 18.6211,10.82617 h 34.39453 l 9.48242,4.6543 9.1875,-4.18164 -5.72656,-2.79297 -1.59766,-16.009769 -13.40039,-25.287109 3.75391,-7.800781 -3.99414,-11.5 3.18554,-10.085938 z m 206.99414,9.839844 -15.96289,9.015625 -13.61914,13.583984 -23.09961,3.255859 -17.21875,8.560547 6.77149,9.330078 27.91992,15.53125 18.70898,17.431638 16.49219,1.62305 26.4082,14.2832 h 36.30078 c 0,0 -18.218,-14.68618 -19.25,-15.36718 -1,-0.646 -14.28515,-5.80079 -14.28515,-5.80079 l -0.006,-0.002 L 423.75,73.828125 407.77148,50.527344 Z"
     style="fill:#007dc3"
     id="path9" />
</svg>
