<?xml version="1.0" standalone="no"?>
<!DOCTYPE svg PUBLIC "-//W3C//DTD SVG 20010904//EN"
 "http://www.w3.org/TR/2001/REC-SVG-20010904/DTD/svg10.dtd">
<svg version="1.0" xmlns="http://www.w3.org/2000/svg"
 width="1279.000000pt" height="355.000000pt" viewBox="0 0 1279.000000 355.000000"
 preserveAspectRatio="xMidYMid meet">
<metadata>
Created by potrace 1.16, written by Peter Selinger 2001-2019
</metadata>
<g transform="translate(0.000000,355.000000) scale(0.100000,-0.100000)"
fill="#000000" stroke="none">
<path d="M12055 3519 c-320 -31 -542 -182 -680 -462 -58 -118 -85 -224 -92
-362 -20 -390 176 -689 527 -803 109 -36 232 -52 393 -52 184 0 327 20 470 67
100 32 108 36 103 56 -22 83 -28 167 -24 375 4 173 9 239 21 277 9 28 17 56
17 63 0 9 -48 12 -205 12 l-205 0 34 -53 c58 -90 68 -140 73 -348 l5 -185 -43
-17 c-74 -28 -130 -37 -232 -37 -332 -1 -576 175 -654 470 -23 87 -23 271 0
360 80 308 349 490 666 450 112 -14 222 -47 340 -101 46 -22 86 -39 88 -39 2
0 2 64 1 142 l-3 142 -85 18 c-171 35 -339 43 -515 27z"/>
<path d="M30 3497 c0 -9 8 -46 18 -84 15 -61 17 -131 17 -713 0 -573 -2 -655
-17 -735 -10 -49 -18 -96 -18 -102 0 -10 41 -13 170 -13 94 0 170 1 170 3 0 2
-9 43 -20 93 -17 74 -22 137 -26 374 -5 262 -4 283 11 265 8 -11 69 -90 134
-175 161 -209 291 -359 407 -469 l98 -91 123 0 124 0 -101 123 c-195 237 -440
578 -440 611 0 7 10 17 23 23 50 24 149 108 191 164 106 141 115 338 22 484
-69 106 -188 190 -331 230 -87 25 -555 35 -555 12z m373 -153 c133 -30 234
-100 285 -199 23 -43 27 -63 27 -135 0 -71 -4 -93 -25 -133 -45 -89 -134 -152
-284 -203 -38 -13 -73 -24 -78 -24 -4 0 -8 160 -8 355 0 195 2 355 6 355 3 0
37 -7 77 -16z"/>
<path d="M4100 3365 c-157 -35 -283 -106 -387 -218 -206 -221 -243 -515 -100
-791 60 -118 183 -239 297 -294 126 -61 198 -75 360 -69 103 4 150 10 200 27
118 40 200 90 281 171 63 62 85 93 122 170 60 126 72 180 72 329 -1 147 -17
217 -76 338 -75 153 -213 272 -374 322 -91 29 -298 37 -395 15z m257 -166
c252 -94 416 -400 359 -669 -84 -396 -494 -514 -782 -226 -117 117 -169 251
-168 431 1 118 30 215 90 303 115 166 314 230 501 161z"/>
<path d="M1425 3343 c40 -157 40 -155 40 -658 0 -443 -2 -498 -19 -570 -10
-44 -20 -90 -23 -102 l-5 -23 359 0 360 0 50 118 c28 64 49 118 48 120 -1 2
-48 -11 -104 -27 -138 -41 -228 -58 -348 -67 l-103 -7 0 248 0 248 60 -6 c53
-6 193 -37 232 -52 10 -4 34 27 76 95 l61 100 -214 0 -215 0 0 235 0 235 66 0
c76 0 157 -19 244 -57 33 -14 62 -24 64 -22 1 2 26 52 54 112 l51 107 -371 0
-370 0 7 -27z"/>
<path d="M2424 3353 c38 -123 39 -145 43 -588 5 -445 -1 -566 -33 -687 -8 -32
-17 -64 -20 -73 -5 -13 14 -15 155 -15 89 0 161 1 161 3 0 1 -10 45 -21 97
-18 79 -22 141 -26 365 l-5 270 212 -270 c219 -278 258 -336 286 -419 l17 -49
81 7 c44 3 121 6 171 6 l89 0 -50 53 c-41 42 -242 292 -536 669 l-30 38 165
197 c156 187 271 308 362 380 l40 32 -182 1 c-173 0 -183 -1 -183 -19 0 -10
-15 -41 -34 -69 -30 -45 -359 -457 -394 -492 -12 -13 -13 12 -9 200 4 191 8
224 29 298 l25 82 -159 0 c-147 0 -159 -1 -154 -17z"/>
<path d="M5180 3366 c0 -3 8 -35 17 -73 16 -60 18 -126 17 -583 0 -440 -2
-529 -17 -612 -9 -54 -17 -100 -17 -103 0 -3 63 -5 140 -5 113 0 140 3 140 14
0 8 -7 47 -15 87 -12 56 -15 127 -13 293 l3 219 105 -139 c142 -188 254 -318
347 -403 l78 -71 98 0 c53 0 97 3 97 6 0 3 -31 42 -68 87 -158 191 -372 490
-372 521 0 6 16 20 36 31 57 31 139 118 170 182 40 80 46 201 14 286 -45 121
-174 220 -327 252 -63 14 -433 22 -433 11z m351 -146 c85 -27 147 -74 184
-141 25 -46 30 -65 30 -124 -1 -134 -75 -215 -254 -276 -30 -11 -56 -19 -58
-19 -1 0 -3 131 -3 290 0 332 -10 305 101 270z"/>
<path d="M6373 3344 c4 -16 14 -63 24 -104 16 -67 18 -129 18 -575 -1 -486 -1
-502 -23 -579 -12 -44 -22 -84 -22 -89 0 -6 81 -8 228 -4 183 4 242 9 303 25
348 92 556 416 495 771 -48 275 -236 472 -525 548 -83 22 -125 26 -300 30
l-204 6 6 -29z m383 -135 c210 -64 347 -207 389 -404 64 -305 -117 -586 -419
-652 -42 -9 -79 -13 -83 -9 -10 10 -17 808 -8 962 8 144 3 139 121 103z"/>
<path d="M7595 3353 c38 -99 40 -137 40 -673 0 -549 1 -528 -41 -673 -5 -16
15 -17 356 -15 l361 3 50 114 c27 62 48 116 45 118 -2 2 -48 -9 -102 -26 -134
-41 -220 -58 -341 -66 l-103 -8 0 248 0 248 61 -7 c34 -4 102 -18 151 -30 l89
-24 14 22 c7 11 34 55 58 96 l46 75 -210 3 -209 2 0 237 0 236 88 -6 c65 -3
110 -13 177 -38 50 -19 93 -34 97 -34 6 0 108 199 108 211 0 2 -167 4 -371 4
-349 0 -371 -1 -364 -17z"/>
<path d="M8610 3367 c0 -1 7 -34 15 -72 12 -57 15 -168 15 -585 0 -283 -4
-542 -9 -575 -5 -33 -13 -79 -16 -102 l-8 -43 142 0 c100 0 141 3 141 12 0 6
-7 45 -15 87 -12 58 -15 129 -13 295 l3 219 101 -135 c143 -189 241 -304 341
-397 l86 -81 99 0 c77 0 97 3 92 13 -4 6 -44 57 -89 112 -111 136 -241 313
-303 411 l-51 82 49 31 c70 46 136 117 168 180 38 79 43 200 11 286 -44 118
-175 218 -327 251 -56 11 -432 22 -432 11z m351 -147 c216 -68 287 -293 140
-440 -42 -42 -129 -88 -218 -115 l-23 -6 0 290 c0 333 -10 306 101 271z"/>
<path d="M9794 3355 c41 -108 41 -110 41 -660 0 -487 -1 -535 -19 -595 -10
-36 -21 -75 -23 -87 l-5 -23 333 0 334 0 57 132 c31 73 55 134 53 136 -1 2
-41 -10 -88 -27 -94 -33 -245 -67 -354 -79 l-73 -8 0 457 c0 478 8 621 40 713
l19 56 -161 0 c-140 0 -159 -2 -154 -15z"/>
<path d="M10755 3353 c39 -100 40 -124 40 -663 0 -513 0 -527 -22 -607 -13
-45 -23 -85 -23 -88 0 -3 70 -5 156 -5 l157 0 -6 33 c-3 17 -14 66 -24 107
-16 67 -18 128 -18 560 0 435 2 493 19 560 10 41 20 85 23 98 l5 22 -157 0
c-146 0 -157 -1 -150 -17z"/>
<path d="M4775 1259 c-144 -12 -256 -52 -370 -134 -86 -61 -148 -135 -195
-230 -51 -103 -70 -179 -70 -281 0 -234 124 -445 315 -535 96 -45 168 -60 295
-60 134 -1 237 18 325 60 l62 29 7 92 c4 51 5 95 2 98 -3 2 -27 -9 -53 -26
-170 -109 -353 -128 -509 -52 -176 86 -270 286 -234 499 54 321 379 470 703
323 l67 -31 0 104 0 104 -56 17 c-75 21 -190 31 -289 23z"/>
<path d="M5354 1228 c37 -129 37 -143 33 -612 -3 -394 -6 -469 -20 -516 -9
-30 -17 -61 -17 -67 0 -10 35 -13 140 -13 77 0 140 1 140 3 0 2 -10 45 -22 97
-21 90 -22 118 -22 525 0 362 2 441 16 500 9 39 19 78 23 88 7 16 -4 17 -135
17 l-142 0 6 -22z"/>
<path d="M5850 1244 c0 -5 9 -52 21 -104 40 -185 36 -909 -6 -1045 -25 -84
-40 -79 188 -72 308 9 415 45 557 187 121 120 170 242 170 420 0 173 -54 304
-176 426 -79 80 -187 140 -304 170 -72 18 -450 33 -450 18z m383 -149 c163
-56 270 -169 312 -332 56 -215 -52 -456 -246 -552 -76 -37 -190 -64 -201 -47
-9 13 -11 928 -2 951 8 19 33 15 137 -20z"/>
<path d="M6925 1223 c30 -116 34 -192 34 -593 1 -334 -2 -429 -15 -485 -8 -38
-17 -82 -21 -97 l-5 -28 323 0 324 0 47 108 c26 59 45 108 44 109 -2 2 -23 -4
-47 -12 -109 -39 -239 -66 -346 -72 l-113 -6 0 220 0 219 68 -8 c37 -4 99 -17
137 -27 81 -23 74 -27 138 79 l46 75 -195 3 -194 2 0 212 0 211 80 -6 c47 -4
110 -17 153 -33 119 -43 107 -47 152 52 22 48 42 91 43 96 2 4 -146 8 -328 8
l-332 0 7 -27z"/>
<path d="M7810 1248 c0 -2 7 -39 15 -83 11 -62 14 -178 14 -505 0 -389 -3
-471 -24 -598 l-8 -42 127 0 c90 0 126 3 126 12 0 6 -7 48 -15 93 -11 58 -15
132 -13 263 l3 181 125 -162 c69 -89 176 -213 238 -275 l112 -112 90 0 c50 0
90 3 90 6 0 3 -37 52 -83 107 -108 132 -218 280 -272 369 l-44 70 59 40 c186
124 222 346 80 501 -55 60 -142 108 -228 126 -44 9 -392 17 -392 9z m353 -146
c197 -86 210 -328 22 -424 -33 -17 -140 -58 -152 -58 -1 0 -3 117 -3 260 l0
261 38 -7 c20 -3 63 -18 95 -32z"/>
</g>
</svg>
